<?xml version="1.0" encoding="utf-8"?>
<!-- Generator: Adobe Illustrator 17.0.0, SVG Export Plug-In . SVG Version: 6.00 Build 0)  -->
<!DOCTYPE svg PUBLIC "-//W3C//DTD SVG 1.1//EN" "http://www.w3.org/Graphics/SVG/1.1/DTD/svg11.dtd">
<svg version="1.1" id="Layer_1" xmlns="http://www.w3.org/2000/svg" xmlns:xlink="http://www.w3.org/1999/xlink" x="0px" y="0px"
	 width="80px" height="80px" viewBox="0 0 80 80" enable-background="new 0 0 80 80" xml:space="preserve">
<path fill="#49525E" d="M74.724,40.118C74.724,20.876,59.177,5.276,40,5.276c-19.177,0-34.724,15.6-34.724,34.842
	c0,16.026,10.804,29.46,25.486,33.521l0.799-11.451c0.008-0.113,0.039-0.219,0.055-0.33c0.259-6.129,0.549-12.13,0.713-15.438
	c-2.281,3.156-3.671,8.458-4.023,15.568c-0.087,1.745-1.506,3.099-3.207,3.099c-0.056,0-0.109-0.002-0.165-0.006
	c-1.773-0.091-3.138-1.622-3.048-3.421c0.521-10.496,2.978-17.584,7.519-21.666c0.918-0.827,1.891-1.586,2.947-2.213
	c0.603-0.356,1.243-0.646,1.899-0.883c1.606-0.582,3.317-0.858,5.019-0.916l-2.945,25.089l3.88,4.037l3.393-4.037l-2.35-25.054
	c1.559,0.107,3.118,0.399,4.599,0.92c1.594,0.558,2.969,1.45,4.294,2.492c5.073,3.985,7.758,11.498,7.976,22.326
	c0.037,1.803-1.373,3.292-3.147,3.329c-1.812,0.002-3.243-1.415-3.28-3.195c-0.142-7.056-1.454-12.303-3.783-15.465
	c0.346,4.289,0.948,12.186,1.134,17.519c0.035,0.182,0.079,0.367,0.09,0.56l0.575,9.005C64.148,69.292,74.724,55.973,74.724,40.118z
	 M40.119,35.072c-5.029,0-9.105-4.135-9.105-9.244c0-5.107,4.076-9.245,9.105-9.245c5.03,0,9.111,4.137,9.111,9.245
	C49.229,30.936,45.149,35.072,40.119,35.072z"/>
<path fill="#49525E" d="M40,0C17.909,0,0,17.909,0,40c0,22.091,17.909,40,40,40s40-17.909,40-40C80,17.909,62.091,0,40,0z M40,78.75
	C18.599,78.75,1.25,61.401,1.25,40S18.599,1.25,40,1.25S78.75,18.599,78.75,40S61.401,78.75,40,78.75z"/>
</svg>
